<svg xmlns="http://www.w3.org/2000/svg" width="218" height="218" viewBox="0 0 218 218">
  <g fill="#FD66FD" fill-rule="evenodd" transform="rotate(90 109 109)">
    <circle cx="124" cy="4" r="4"/>
    <circle cx="94" cy="4" r="4"/>
    <circle cx="64" cy="4" r="4"/>
    <circle cx="34" cy="4" r="4"/>
    <circle cx="124" cy="34" r="4"/>
    <circle cx="94" cy="34" r="4"/>
    <circle cx="64" cy="34" r="4"/>
    <circle cx="124" cy="64" r="4"/>
    <circle cx="94" cy="64" r="4"/>
    <circle cx="124" cy="94" r="4"/>
    <circle cx="124" cy="124" r="4"/>
    <circle cx="94" cy="94" r="4"/>
    <circle cx="64" cy="64" r="4"/>
    <circle cx="34" cy="34" r="4"/>
    <circle cx="4" cy="4" r="4"/>
    <circle cx="154" cy="4" r="4"/>
    <circle cx="184" cy="4" r="4"/>
    <circle cx="214" cy="4" r="4"/>
    <circle cx="214" cy="34" r="4"/>
    <circle cx="184" cy="34" r="4"/>
    <circle cx="184" cy="64" r="4"/>
    <circle cx="184" cy="94" r="4"/>
    <circle cx="184" cy="124" r="4"/>
    <circle cx="184" cy="154" r="4"/>
    <circle cx="184" cy="184" r="4"/>
    <circle cx="154" cy="34" r="4"/>
    <circle cx="154" cy="64" r="4"/>
    <circle cx="154" cy="94" r="4"/>
    <circle cx="154" cy="124" r="4"/>
    <circle cx="154" cy="154" r="4"/>
    <circle cx="214" cy="64" r="4"/>
    <circle cx="214" cy="94" r="4"/>
    <circle cx="214" cy="124" r="4"/>
    <circle cx="214" cy="154" r="4"/>
    <circle cx="214" cy="184" r="4"/>
    <circle cx="214" cy="214" r="4"/>
  </g>
</svg>
