<svg xmlns="http://www.w3.org/2000/svg" xmlns:xlink="http://www.w3.org/1999/xlink" width="245" height="48" viewBox="0 0 245 48">
  <defs>
    <circle id="a" cx="24" cy="24" r="24"/>
    <circle id="c" cx="24" cy="24" r="24"/>
    <polygon id="e" points="0 0 15.874 0 49.89 58.394 0 58.394"/>
  </defs>
  <g fill="none" fill-rule="evenodd">
    <g fill="#1B1825" transform="translate(64 8)">
      <path d="M10.1 16L7 9.8 4.18 9.8 4.18 16 1.26 16 1.26 1 8.2 1C10.68 1 12.62 2.98 12.62 5.44 12.62 7.32 11.5 8.86 9.9 9.48L13.26 16 10.1 16zM4.18 3.6L4.18 7.34 7.76 7.34C8.92 7.34 9.8 6.62 9.8 5.48 9.8 4.36 8.92 3.6 7.76 3.6L4.18 3.6zM25.22 16L24.42 13.68 18.16 13.68 17.36 16 14.16 16 19.88 1 22.68 1 28.42 16 25.22 16zM19 11.22L23.58 11.22 21.3 4.54 19 11.22zM36.48 16.2C32.2 16.2 28.78 12.76 28.78 8.5 28.78 4.24 32.2.8 36.48.8 38.74.8 40.94 1.86 42.34 3.52L40.16 5.28C39.28 4.2 37.92 3.56 36.48 3.56 33.72 3.56 31.58 5.68 31.58 8.5 31.58 11.32 33.72 13.44 36.48 13.44 37.92 13.44 39.28 12.8 40.16 11.72L42.34 13.48C40.94 15.14 38.74 16.2 36.48 16.2zM54.12 1L57.02 1 57.02 16 54.12 16 54.12 9.8 47.54 9.8 47.54 16 44.62 16 44.62 1 47.54 1 47.54 7.18 54.12 7.18 54.12 1zM69.46 3.6L63.28 3.6 63.28 7.2 68.62 7.2 68.62 9.8 63.28 9.8 63.28 13.4 69.46 13.4 69.46 16 60.38 16 60.38 1 69.46 1 69.46 3.6zM75.18 13.38L80.3 13.38 80.3 16 72.28 16 72.28 1 75.18 1 75.18 13.38zM91.56 14.06L91.56 10.28 87.78 10.28 87.78 8.08 91.56 8.08 91.56 4.3 93.78 4.3 93.78 8.08 97.54 8.08 97.54 10.28 93.78 10.28 93.78 14.06 91.56 14.06zM113.5 16.2C109.22 16.2 105.8 12.76 105.8 8.5 105.8 4.24 109.22.8 113.5.8 115.76.8 117.96 1.86 119.36 3.52L117.18 5.28C116.3 4.2 114.94 3.56 113.5 3.56 110.74 3.56 108.6 5.68 108.6 8.5 108.6 11.32 110.74 13.44 113.5 13.44 114.94 13.44 116.3 12.8 117.18 11.72L119.36 13.48C117.96 15.14 115.76 16.2 113.5 16.2zM131.14 1L134.04 1 134.04 16 131.14 16 131.14 9.8 124.56 9.8 124.56 16 121.64 16 121.64 1 124.56 1 124.56 7.18 131.14 7.18 131.14 1zM143.3 16.2C139.84 16.2 137.22 14.02 137.22 10.92L137.22 1 140.12 1 140.12 10.4C140.12 12.3 141.5 13.58 143.3 13.58 145.12 13.58 146.5 12.3 146.5 10.4L146.5 1 149.42 1 149.42 10.92C149.42 14.02 146.78 16.2 143.3 16.2zM159.7 16.2C155.42 16.2 152 12.76 152 8.5 152 4.24 155.42.8 159.7.8 161.96.8 164.16 1.86 165.56 3.52L163.38 5.28C162.5 4.2 161.14 3.56 159.7 3.56 156.94 3.56 154.8 5.68 154.8 8.5 154.8 11.32 156.94 13.44 159.7 13.44 161.14 13.44 162.5 12.8 163.38 11.72L165.56 13.48C164.16 15.14 161.96 16.2 159.7 16.2zM180.42 16L176.6 16 170.76 8.96 170.76 16 167.84 16 167.84 1 170.76 1 170.76 7.92 176.5 1 180.2 1 173.84 8.44 180.42 16zM9.85 24.5L11.6 24.5 8.97 32 7.06 32 6.26 29.96 5.46 32 3.55 32 .93 24.5 2.68 24.5 4.62 30.41 5.5 28.01 4.12 24.5 5.75 24.5 6.27 25.91 6.78 24.5 8.41 24.5 7.03 28.01 7.91 30.41 9.85 24.5zM17.9 25.96L14.88 25.96 14.88 27.52 17.48 27.52 17.48 28.98 14.88 28.98 14.88 30.54 17.9 30.54 17.9 32 13.22 32 13.22 24.5 17.9 24.5 17.9 25.96zM19.95 32L19.95 24.5 22.42 24.5C24.89 24.5 26.25 26.18 26.25 28.25 26.25 30.32 24.89 32 22.42 32L19.95 32zM21.61 30.53L22.34 30.53C23.76 30.53 24.52 29.54 24.52 28.25 24.52 26.96 23.76 25.97 22.34 25.97L21.61 25.97 21.61 30.53zM28.24 32L28.24 24.5 30.71 24.5C33.18 24.5 34.54 26.18 34.54 28.25 34.54 30.32 33.18 32 30.71 32L28.24 32zM29.9 30.53L30.63 30.53C32.05 30.53 32.81 29.54 32.81 28.25 32.81 26.96 32.05 25.97 30.63 25.97L29.9 25.97 29.9 30.53zM36.62 32L36.62 24.5 38.28 24.5 38.28 32 36.62 32zM45.68 24.5L47.34 24.5 47.34 32 45.81 32 42.31 27.17 42.31 32 40.65 32 40.65 24.5 42.17 24.5 45.68 29.32 45.68 24.5zM53.27 27.73L56.52 27.73 56.52 32 55.36 32 55.23 31.56C54.65 31.9 53.97 32.1 53.26 32.1 51.13 32.1 49.41 30.38 49.41 28.25 49.41 26.12 51.13 24.4 53.26 24.4 54.45 24.4 55.56 24.96 56.26 25.84L55.01 26.81C54.6 26.27 53.97 25.95 53.26 25.95 51.98 25.95 51 26.93 51 28.25 51 29.57 51.98 30.55 53.26 30.55 53.96 30.55 54.59 30.24 55 29.7L55 29.11 53.27 29.11 53.27 27.73z"/>
    </g>
    <mask id="b" fill="white">
      <use xlink:href="#a"/>
    </mask>
    <use fill="#FFF" xlink:href="#a"/>
    <rect width="59.906" height="3.969" x="-3.591" fill="#0FC8F3" mask="url(#b)"/>
    <rect width="59.906" height="3.969" x="-3.591" y="7.748" fill="#0FC8F3" mask="url(#b)"/>
    <rect width="59.906" height="3.969" x="-4.346" y="15.307" fill="#0FC8F3" mask="url(#b)"/>
    <rect width="59.906" height="3.969" x="-4.346" y="22.866" fill="#0FC8F3" mask="url(#b)"/>
    <rect width="59.906" height="3.969" x="-4.346" y="30.425" fill="#0FC8F3" mask="url(#b)"/>
    <rect width="59.906" height="3.969" x="-4.346" y="37.984" fill="#0FC8F3" mask="url(#b)"/>
    <rect width="59.906" height="3.969" x="-4.346" y="44.031" fill="#0FC8F3" mask="url(#b)"/>
    <g>
      <mask id="d" fill="white">
        <use xlink:href="#c"/>
      </mask>
      <g mask="url(#d)">
        <g transform="translate(-7.37 -5.48)">
          <mask id="f" fill="white">
            <use xlink:href="#e"/>
          </mask>
          <use fill="#FFFFFF" xlink:href="#e"/>
          <rect width="40.063" height="3.969" x="4.724" y="11.906" fill="#E926E9" mask="url(#f)"/>
          <rect width="40.063" height="3.969" x="4.913" y="27.024" fill="#E926E9" mask="url(#f)"/>
          <rect width="40.063" height="3.969" x="9.827" y="42.142" fill="#E926E9" mask="url(#f)"/>
          <rect width="40.063" height="3.969" x="4.724" y="19.465" fill="#E926E9" mask="url(#f)"/>
          <rect width="40.063" height="3.969" x="4.913" y="34.583" fill="#E926E9" mask="url(#f)"/>
          <rect width="40.063" height="3.969" x="9.827" y="49.701" fill="#E926E9" mask="url(#f)"/>
        </g>
      </g>
    </g>
  </g>
</svg>
