<svg xmlns="http://www.w3.org/2000/svg" width="118" height="25" viewBox="0 0 118 25">
  <g fill="none" fill-rule="evenodd">
    <circle cx="12.5" cy="12.5" r="12.5" fill="#FF6219"/>
    <path fill="#FFFFFF" fill-rule="nonzero" d="M9.92747222,8.15066667 L9.92747222,16.8493333 L12.4954722,16.8493333 C13.8096111,16.8493333 14.7258889,16.2013056 15.2443333,14.90525 C15.5276389,14.1939167 15.6693056,13.3469444 15.6693056,12.3643611 C15.6693056,11.0080278 15.4568056,9.96666667 15.0318333,9.24027778 C14.6068333,8.51388889 13.7613889,8.15066667 12.4954722,8.15066667 L9.92747222,8.15066667 Z M15.0273056,6.12522222 C15.9616667,6.43266667 16.7181944,6.99627778 17.2969167,7.81611111 C17.7610833,8.47922222 18.0775556,9.19655556 18.2463333,9.96816667 C18.4151389,10.7397778 18.4995278,11.4752222 18.4995278,12.1744722 C18.4995278,13.94675 18.1438611,15.4477778 17.4325556,16.6775278 C16.4680278,18.33525 14.9790833,19.1641389 12.9656667,19.1641389 L7.22386111,19.1641389 L7.22386111,5.83586111 L12.9656667,5.83586111 C13.7915278,5.84791667 14.47875,5.94436111 15.0273056,6.12522222 Z"/>
    <g transform="translate(31)">
      <circle cx="12.5" cy="12.5" r="12.5" fill="#FCCC0A"/>
      <polygon fill="#000000" fill-rule="nonzero" points="7.179 5.836 10.099 5.836 15.407 15.14 15.407 5.836 18.002 5.836 18.002 19.164 15.217 19.164 9.774 9.697 9.774 19.164 7.179 19.164"/>
    </g>
    <g transform="translate(62)">
      <circle cx="12.5" cy="12.5" r="12.5" fill="#FCCC0A"/>
      <path fill="#000000" fill-rule="nonzero" d="M13.4991667,17.0573056 C13.6619167,17.0150833 13.8698889,16.93975 14.1230833,16.8312222 L12.7757778,15.54725 L14.2135,14.0462222 L15.5608056,15.3302222 C15.7717778,14.8961944 15.9194722,14.5164167 16.0038611,14.1908889 C16.1365,13.7026111 16.2028056,13.1329444 16.2028056,12.4819167 C16.2028056,10.9869444 15.8968611,9.83102778 15.285,9.01422222 C14.6731667,8.19738889 13.7794722,7.789 12.6039722,7.789 C11.5008333,7.789 10.6207222,8.18083333 9.96363889,8.96447222 C9.30658333,9.74813889 8.97805556,10.9206111 8.97805556,12.4819167 C8.97805556,14.3084444 9.44825,15.6165556 10.3886389,16.40625 C10.9974722,16.9186389 11.7268889,17.1748333 12.5768611,17.1748333 C12.8963611,17.1748333 13.2037778,17.1356667 13.4991667,17.0573056 Z M18.5537778,15.2669167 C18.3186944,16.0325 17.9720556,16.6684722 17.5139167,17.1748333 L19.0511111,18.6125556 L17.5953056,20.1316667 L15.9857778,18.6125556 C15.4975,18.9079444 15.0755278,19.1159167 14.7198611,19.2364722 C14.1230833,19.4353889 13.40875,19.5348611 12.5768611,19.5348611 C10.84075,19.5348611 9.40605556,19.0164444 8.27275,17.9796111 C6.89833333,16.7317778 6.21111111,14.8992222 6.21111111,12.4819167 C6.21111111,10.0465278 6.91641667,8.20494444 8.327,6.95711111 C9.47838889,5.93833333 10.9100833,5.42897222 12.6220833,5.42897222 C14.3461389,5.42897222 15.7928889,5.96847222 16.9623611,7.04752778 C18.3126667,8.29536111 18.9878056,10.0405 18.9878056,12.283 C18.9878056,13.4705278 18.8431389,14.4651944 18.5537778,15.2669167 Z"/>
    </g>
    <g transform="translate(93)">
      <circle cx="12.5" cy="12.5" r="12.5" fill="#FCCC0A"/>
      <path fill="#000000" fill-rule="nonzero" d="M10.0088611,8.15066667 L10.0088611,11.7314167 L13.1646111,11.7314167 C13.7915278,11.7314167 14.2617222,11.6590833 14.5751944,11.5143889 C15.1297778,11.2612222 15.4070833,10.7608611 15.4070833,10.0133889 C15.4070833,9.20561111 15.1388333,8.66308333 14.6023333,8.38577778 C14.3009167,8.22905556 13.8488056,8.15066667 13.2459722,8.15066667 L10.0088611,8.15066667 Z M15.9812778,6.17947222 C16.4846111,6.39044444 16.9111111,6.70091667 17.26075,7.11083333 C17.5500833,7.44838889 17.7791667,7.82213889 17.9479444,8.23205556 C18.11675,8.64197222 18.2011389,9.10916667 18.2011389,9.63361111 C18.2011389,10.2665556 18.0413889,10.8889722 17.7218889,11.5008333 C17.4024167,12.1126944 16.8749444,12.5452222 16.1395,12.7983889 C16.7543889,13.0455556 17.1899167,13.3966944 17.4461111,13.8518056 C17.7023056,14.3069444 17.8304167,15.0016944 17.8304167,15.9360556 L17.8304167,16.8312222 C17.8304167,17.4400833 17.8545278,17.853 17.90275,18.0700278 C17.9750833,18.4136389 18.1438611,18.6668056 18.4091111,18.8295833 L18.4091111,19.1641389 L15.3437778,19.1641389 C15.2593889,18.86875 15.1991111,18.6306389 15.1629444,18.4498056 C15.0906111,18.0760556 15.0514167,17.69325 15.0453889,17.3014444 L15.0273056,16.0626389 C15.01525,15.2126667 14.8600278,14.6460278 14.5616389,14.3626944 C14.26325,14.0793889 13.7041389,13.9377222 12.8843056,13.9377222 L10.0088611,13.9377222 L10.0088611,19.1641389 L7.28713889,19.1641389 L7.28713889,5.83586111 L13.8246944,5.83586111 C14.7590556,5.85394444 15.4779167,5.96847222 15.9812778,6.17947222 Z"/>
    </g>
  </g>
</svg>
