<svg xmlns="http://www.w3.org/2000/svg" viewBox="0 0 404 350">
  <g fill="none" fill-rule="evenodd">
    <polyline fill="#FFDC00" points="202 108.647 310.576 296.707 93.424 296.707 202 108.647"/>
    <polyline fill="#FD9651" points="399.78 343.655 393.514 350 403.443 350 399.78 343.655"/>
    <polyline fill="#FD9651" points="392.148 330.428 372.776 350 384.057 350 396.397 337.789 392.148 330.428"/>
    <polyline fill="#FD9651" points="384.493 317.18 352.052 350 362.847 350 388.692 324.448 384.493 317.18"/>
    <polyline fill="#FD9651" points="376.853 303.938 331.328 350 341.629 350 380.988 311.1 376.853 303.938"/>
    <polyline fill="#FD9651" points="369.214 290.705 310.647 350 320.369 350 373.277 297.744 369.214 290.705"/>
    <polyline fill="#FD9651" points="361.573 277.471 289.924 350 299.152 350 365.565 284.389 361.573 277.471"/>
    <polyline fill="#FD9651" points="353.926 264.236 269.25 350 277.884 350 357.854 271.04 353.926 264.236"/>
    <polyline fill="#FD9651" points="346.279 250.988 248.548 350 256.646 350 350.157 257.698 346.279 250.988"/>
    <polyline fill="#FD9651" points="338.647 237.769 227.853 350 235.4 350 342.438 244.328 338.647 237.769"/>
    <polyline fill="#FD9651" points="331.006 224.535 207.201 350 214.104 350 334.727 230.973 331.006 224.535"/>
    <polyline fill="#FD9651" points="323.366 211.301 186.505 350 192.858 350 327.015 217.617 323.366 211.301"/>
    <polyline fill="#FD9651" points="315.727 198.066 165.832 350 171.59 350 319.303 204.262 315.727 198.066"/>
    <polyline fill="#FD9651" points="308.08 184.818 145.151 350 150.323 350 311.606 190.928 308.08 184.818"/>
    <polyline fill="#FD9651" points="302.407 174.996 300.447 171.599 124.484 350 129.048 350 303.887 177.558 302.407 174.996"/>
    <polyline fill="#FD9651" points="292.806 158.364 103.789 350 107.802 350 296.176 164.202 292.806 158.364"/>
    <polyline fill="#FD9651" points="285.174 145.145 83.166 350 86.478 350 288.457 150.832 285.174 145.145"/>
    <polyline fill="#FD9651" points="277.527 131.911 62.471 350 65.232 350 280.746 137.477 277.527 131.911"/>
    <polyline fill="#FD9651" points="269.901 118.691 41.847 350 43.907 350 273.027 124.106 269.901 118.691"/>
    <polyline fill="#FD9651" points="262.261 105.457 21.18 350 22.633 350 265.316 110.751 262.261 105.457"/>
    <polyline fill="#FD9651" points="254.621 92.224 .557 350 1.315 350 257.604 97.402 254.621 92.224"/>
    <polyline fill="#FFDC00" points="246.974 78.982 26.825 302.322 24.657 306.07 249.9 84.047 246.974 78.982"/>
    <polyline fill="#FFDC00" points="239.341 65.77 56.054 251.696 52.749 257.419 242.181 70.677 239.341 65.77"/>
    <path fill="#FFDC00" d="M231.687,52.514 C224.569,59.703 209.733,74.804 85.326,200.992 L80.798,208.84 C206.936,84.483 226.458,65.29 234.484,57.35 L231.687,52.514"/>
    <polyline fill="#FFDC00" points="224.069 39.309 114.548 150.381 108.897 160.167 226.751 43.959 224.069 39.309"/>
    <polyline fill="#FFDC00" points="216.436 26.089 143.777 99.756 136.982 111.523 219.033 30.589 216.436 26.089"/>
    <polyline fill="#FFDC00" points="208.796 12.855 173 49.145 165.081 62.857 211.328 17.24 208.796 12.855"/>
    <polyline fill="#FFDC00" points="201.37 0 193.215 14.121 203.602 3.87 201.37 0"/>
  </g>
</svg>
