<svg xmlns="http://www.w3.org/2000/svg" width="98" height="98" viewBox="0 0 98 98">
  <g fill="#FD66FD" fill-rule="evenodd" transform="rotate(90 49 49)">
    <circle cx="4" cy="4" r="4" opacity=".1" transform="translate(90)"/>
    <g opacity=".2" transform="translate(60)">
      <circle cx="4" cy="4" r="4"/>
      <circle cx="34" cy="34" r="4"/>
    </g>
    <g opacity=".3" transform="translate(30)">
      <circle cx="4" cy="4" r="4"/>
      <circle cx="34" cy="34" r="4"/>
      <circle cx="64" cy="64" r="4"/>
    </g>
    <g opacity=".4">
      <circle cx="4" cy="4" r="4"/>
      <circle cx="64" cy="64" r="4"/>
      <circle cx="34" cy="34" r="4"/>
      <circle cx="94" cy="94" r="4"/>
    </g>
    <g opacity=".5" transform="translate(0 30)">
      <circle cx="34" cy="34" r="4"/>
      <circle cx="4" cy="4" r="4"/>
      <circle cx="64" cy="64" r="4"/>
    </g>
    <g opacity=".6" transform="translate(0 60)">
      <circle cx="4" cy="4" r="4"/>
      <circle cx="34" cy="34" r="4"/>
    </g>
    <circle cx="4" cy="4" r="4" opacity=".7" transform="translate(0 90)"/>
  </g>
</svg>
