<svg xmlns="http://www.w3.org/2000/svg" width="360" height="238" viewBox="0 0 360 238">
  <g fill="none" fill-rule="evenodd" transform="translate(0 -1)">
    <path fill="#0FC8F3" d="M260.706,2.643 C261.698,2.809 262.688,2.983 263.673,3.174 C200.2,67.652 142.785,127.513 124.906,146.205 C124.17,142.933 123.568,139.614 123.108,136.247 C142.133,118.024 201.611,60.904 260.706,2.643 Z M240.988,239.012 C239.795,239.012 238.616,238.957 237.432,238.923 C303.368,175.624 334.431,145.04 359.996,119.86 C359.996,119.906 360,119.953 360,120 C360,121.646 359.942,123.278 359.876,124.907 C304.371,181.439 263.541,223.798 249.221,238.698 C246.497,238.884 243.758,239.012 240.988,239.012 Z M333.708,45.423 C334.005,45.791 334.293,46.167 334.585,46.539 C276.168,105.361 174.361,211.817 170.486,215.87 C168.087,214.103 165.768,212.238 163.512,210.3 C177.552,196.849 282.073,96.656 333.708,45.423 Z M339.118,52.677 C339.422,53.119 339.728,53.561 340.026,54.008 C288.194,106.081 190.532,207.988 178.065,221.007 C175.514,219.414 173.026,217.734 170.61,215.959 C174.889,211.868 280.295,111.062 339.118,52.677 Z M263.661,236.829 C259.41,237.649 255.077,238.232 250.678,238.587 C307.361,184.065 326.003,165.754 359.27,133.077 C359.033,135.243 358.731,137.389 358.38,139.518 C321.627,176.859 277.433,222.566 263.661,236.829 Z M299.023,16.103 C299.474,16.356 299.918,16.617 300.364,16.875 C250.355,67.281 158.649,162.959 139.801,182.642 C138.211,180.079 136.726,177.446 135.33,174.758 C154.343,156.53 253.807,61.092 299.023,16.103 Z M343.997,60.422 C344.308,60.958 344.622,61.493 344.924,62.034 C274.212,133.59 195.65,215.737 186.19,225.637 C183.485,224.231 180.837,222.734 178.259,221.131 C191.323,208.619 291.783,112.337 343.997,60.422 Z M271.385,4.92 C272.197,5.134 272.998,5.376 273.803,5.607 C213.953,66.361 147.904,135.153 127.635,156.306 C126.651,153.229 125.805,150.094 125.069,146.914 C143.722,129.073 205.462,69.864 271.385,4.92 Z M321.42,32.297 C321.714,32.567 321.996,32.851 322.287,33.124 C271.08,84.65 169.183,191.099 156.763,204.081 C154.665,201.979 152.667,199.779 150.73,197.525 C164.317,184.541 262.958,90.201 321.42,32.297 Z M314.485,26.431 C314.8,26.679 315.118,26.924 315.431,27.175 C257.484,85.696 163.617,183.844 150.641,197.422 C148.703,195.163 146.84,192.841 145.073,190.44 C163.016,173.246 280.802,60.313 314.485,26.431 Z M308.125,21.738 C273.268,56.477 162.098,172.424 144.972,190.297 C143.203,187.886 141.527,185.405 139.941,182.86 C159.705,163.936 256.999,70.682 307.026,20.991 C307.395,21.237 307.76,21.488 308.125,21.738 Z M327.804,38.637 C328.096,38.949 328.4,39.251 328.689,39.566 C277.599,91.038 176.844,196.144 163.386,210.192 C161.138,208.255 158.941,206.261 156.844,204.165 C169.85,191.719 276.863,89.259 327.804,38.637 Z M249.097,1.294 C250.302,1.375 251.509,1.451 252.704,1.568 C196.064,59.077 141.279,116.114 122.977,135.218 C122.533,131.74 122.23,128.219 122.093,124.654 C138.356,109.024 191.165,58.169 249.097,1.294 Z M305.19,220.186 C298.738,224.329 291.864,227.863 284.64,230.714 C297.551,218.212 325.302,191.302 350.522,166.602 C348.341,171.723 345.81,176.657 342.961,181.38 C332.054,192.548 316.078,208.98 305.19,220.186 Z M281.272,7.994 C281.937,8.234 282.594,8.489 283.254,8.74 C235.071,57.345 152.816,143.045 131.087,165.714 C129.883,162.823 128.802,159.868 127.825,156.866 C149.067,136.513 219.809,68.593 281.272,7.994 Z M348.373,68.644 C348.681,69.287 348.959,69.948 349.256,70.598 C282.915,137.732 210.665,213.174 194.838,229.729 C191.967,228.52 189.168,227.176 186.417,225.753 C196.511,216.109 277.282,138.86 348.373,68.644 Z M357.764,97.031 C357.982,98.147 358.178,99.269 358.364,100.395 C311.655,147.702 268.95,191.88 224.8,237.887 C221.34,237.416 217.931,236.795 214.573,236.033 C277.463,175.893 329.118,125.45 357.764,97.031 Z M329.349,199.714 C325.724,203.243 322.047,206.819 318.498,210.27 C322.329,206.977 325.964,203.464 329.349,199.714 Z M359.707,112.052 C337.256,134.846 304.519,167.98 236.509,238.825 C236.485,238.851 236.465,238.872 236.44,238.898 C232.743,238.758 229.092,238.444 225.488,237.975 C270.167,195.095 313.238,153.471 359.394,107.94 C359.531,109.302 359.616,110.678 359.707,112.052 Z M352.155,77.498 C352.446,78.26 352.742,79.018 353.018,79.786 C291.122,142.436 221.271,215.229 204.1,233.156 C201.055,232.163 198.057,231.068 195.125,229.842 C211.747,213.948 286.132,142.695 352.155,77.498 Z M280.866,232.143 C276.022,233.866 271.037,235.284 265.927,236.374 C280.819,221.991 321.455,182.685 356.625,148.134 C355.907,151.093 355.081,154.008 354.147,156.876 C326.073,185.479 292.821,219.792 280.866,232.143 Z M290.443,11.756 C290.992,12.007 291.549,12.242 292.093,12.502 C246.646,58.265 153.362,155.476 135.172,174.448 C133.769,171.727 132.442,168.961 131.248,166.122 C154.038,144.279 242.064,59.797 290.443,11.756 Z M355.307,86.925 C355.573,87.846 355.849,88.763 356.093,89.694 C328.457,117.498 275.583,171.6 214.083,235.921 C210.844,235.172 207.651,234.305 204.52,233.298 C222.425,216.146 293.238,148.196 355.307,86.925 Z M221.701,2.566 C223.61,2.255 225.534,1.992 227.472,1.773 C176.3,53.987 136.919,94.845 122.431,109.916 C122.787,105.677 123.357,101.5 124.146,97.399 C139.021,83.062 176.11,47.228 221.701,2.566 Z M204.361,6.757 C206.979,5.91 209.635,5.15 212.33,4.484 C172.072,45.619 139.398,79.418 124.708,94.651 C125.778,89.722 127.149,84.908 128.808,80.229 C144.278,65.295 176.822,33.815 204.361,6.757 Z M180.076,17.757 C184.43,15.157 188.965,12.832 193.655,10.796 C170.079,34.861 144.827,60.948 130.495,75.788 C133.264,68.874 136.66,62.286 140.618,56.084 C151.833,45.216 167.277,30.258 180.076,17.757 Z M236.238,1.108 C237.729,1.049 239.221,0.998 240.726,0.994 C186.681,56.089 138.131,106.485 122.056,123.204 C122.028,122.136 121.975,121.074 121.975,120 C121.975,117.249 122.102,114.53 122.286,111.825 C136.887,97.794 180.571,55.708 236.238,1.108 Z"/>
    <path fill="#FF00FF" d="M196.441,210.27 C192.248,213.874 187.804,217.187 183.134,220.186 C194.022,208.98 209.998,192.548 220.905,181.38 C216.954,187.93 212.39,194.067 207.292,199.714 C203.667,203.243 199.991,206.819 196.441,210.27 Z M162.584,230.714 C161.334,231.207 160.08,231.692 158.81,232.143 C170.765,219.792 204.017,185.479 232.091,156.876 C231.014,160.181 229.817,163.431 228.466,166.602 C203.246,191.302 175.495,218.212 162.584,230.714 Z M143.871,236.374 C143.118,236.535 142.362,236.683 141.604,236.829 C155.377,222.566 199.571,176.859 236.323,139.518 C235.843,142.427 235.255,145.3 234.568,148.134 C199.399,182.685 158.763,221.991 143.871,236.374 Z M128.621,238.587 C128.136,238.626 127.651,238.664 127.165,238.698 C141.484,223.798 182.315,181.439 237.82,124.907 C237.708,127.656 237.509,130.38 237.214,133.077 C203.946,165.754 185.304,184.065 128.621,238.587 Z M114.453,238.825 C182.463,167.98 215.199,134.846 237.65,112.052 C237.821,114.636 237.937,117.234 237.94,119.86 C212.375,145.04 181.312,175.624 115.375,238.923 C115.045,238.913 114.714,238.91 114.384,238.898 C114.408,238.872 114.429,238.851 114.453,238.825 Z M236.308,100.395 C236.721,102.887 237.082,105.398 237.338,107.94 C191.181,153.471 148.111,195.095 103.432,237.975 C103.202,237.945 102.972,237.919 102.743,237.887 C146.894,191.88 189.599,147.702 236.308,100.395 Z M234.037,89.694 C234.671,92.11 235.223,94.558 235.707,97.031 C207.062,125.45 155.406,175.893 92.516,236.033 C92.353,235.996 92.19,235.958 92.026,235.921 C153.527,171.6 206.401,117.498 234.037,89.694 Z M230.961,79.786 C231.803,82.131 232.555,84.515 233.251,86.925 C171.181,148.196 100.369,216.146 82.463,233.298 C82.323,233.252 82.184,233.201 82.044,233.156 C99.215,215.229 169.065,142.436 230.961,79.786 Z M227.2,70.598 C228.235,72.862 229.204,75.16 230.098,77.498 C164.075,142.695 89.691,213.948 73.069,229.842 C72.974,229.802 72.876,229.769 72.781,229.729 C88.609,213.174 160.859,137.732 227.2,70.598 Z M222.868,62.034 C224.079,64.2 225.24,66.397 226.317,68.644 C155.226,138.86 74.455,216.109 64.36,225.753 C64.285,225.714 64.209,225.677 64.134,225.637 C73.594,215.737 152.155,133.59 222.868,62.034 Z M217.97,54.008 C219.365,56.097 220.678,58.243 221.941,60.422 C169.727,112.337 69.266,208.619 56.203,221.131 C56.137,221.091 56.074,221.047 56.008,221.007 C68.476,207.988 166.138,106.081 217.97,54.008 Z M212.529,46.539 C214.1,48.538 215.619,50.578 217.062,52.677 C158.238,111.062 52.832,211.868 48.554,215.959 C48.513,215.928 48.471,215.901 48.43,215.87 C52.305,211.817 154.112,105.361 212.529,46.539 Z M206.633,39.566 C208.371,41.46 210.038,43.419 211.652,45.423 C160.017,96.656 55.495,196.849 41.455,210.3 C41.413,210.264 41.372,210.227 41.33,210.192 C54.788,196.144 155.543,91.038 206.633,39.566 Z M200.231,33.124 C202.13,34.902 203.969,36.74 205.748,38.637 C154.807,89.259 47.794,191.719 34.788,204.165 C34.76,204.137 34.734,204.109 34.707,204.081 C47.126,191.099 149.024,84.65 200.231,33.124 Z M193.375,27.175 C195.425,28.821 197.428,30.521 199.364,32.297 C140.902,90.201 42.26,184.541 28.674,197.525 C28.644,197.49 28.614,197.456 28.585,197.422 C41.561,183.844 135.428,85.696 193.375,27.175 Z M192.429,26.431 C158.746,60.313 40.96,173.246 23.017,190.44 C22.982,190.393 22.95,190.344 22.915,190.297 C40.042,172.424 151.212,56.477 186.069,21.738 C188.246,23.228 190.359,24.803 192.429,26.431 Z M178.308,16.875 C180.573,18.181 182.802,19.543 184.97,20.991 C134.942,70.682 37.649,163.936 17.885,182.86 C17.839,182.787 17.791,182.716 17.745,182.642 C36.592,162.959 128.299,67.281 178.308,16.875 Z M170.037,12.502 C172.394,13.624 174.699,14.834 176.967,16.103 C131.75,61.092 32.286,156.53 13.274,174.758 C13.22,174.655 13.169,174.552 13.115,174.448 C31.306,155.476 124.589,58.265 170.037,12.502 Z M161.197,8.74 C163.635,9.666 166.029,10.677 168.387,11.756 C120.008,59.797 31.982,144.279 9.191,166.122 C9.135,165.988 9.087,165.849 9.031,165.714 C30.759,143.045 113.014,57.345 161.197,8.74 Z M151.747,5.607 C154.269,6.329 156.765,7.113 159.216,7.994 C97.753,68.593 27.011,136.513 5.769,156.866 C5.708,156.678 5.639,156.494 5.579,156.306 C25.847,135.153 91.897,66.361 151.747,5.607 Z M141.616,3.174 C144.217,3.676 146.791,4.252 149.328,4.92 C83.406,69.864 21.666,129.073 3.013,146.914 C2.958,146.677 2.902,146.442 2.849,146.205 C20.728,127.513 78.144,67.652 141.616,3.174 Z M130.648,1.568 C133.344,1.831 136.008,2.203 138.649,2.643 C79.555,60.904 20.076,118.024 1.052,136.247 C1.005,135.905 0.965,135.561 0.921,135.218 C19.223,116.114 74.008,59.077 130.648,1.568 Z M118.931,0.988 C121.66,0.988 124.358,1.113 127.04,1.294 C69.108,58.169 16.299,109.024 0.037,124.654 C0.018,124.172 0.013,123.687 0,123.204 C16.074,106.485 64.625,56.089 118.669,0.994 C118.757,0.994 118.843,0.988 118.931,0.988 Z M105.416,1.773 C108.308,1.446 111.23,1.224 114.182,1.108 C58.515,55.708 14.831,97.794 0.23,111.825 C0.273,111.187 0.321,110.551 0.375,109.916 C14.863,94.845 54.243,53.987 105.416,1.773 Z M90.274,4.484 C93.352,3.723 96.477,3.083 99.645,2.566 C54.054,47.228 16.965,83.062 2.09,97.399 C2.267,96.479 2.454,95.563 2.652,94.651 C17.341,79.418 50.015,45.619 90.274,4.484 Z M71.599,10.796 C75.084,9.283 78.656,7.936 82.304,6.757 C54.765,33.815 22.222,65.295 6.752,80.229 C7.282,78.733 7.851,77.256 8.438,75.788 C22.771,60.948 48.023,34.861 71.599,10.796 Z M18.562,56.084 C29.776,45.216 45.22,30.258 58.02,17.757 C42.065,27.283 28.545,40.441 18.562,56.084 Z"/>
  </g>
</svg>
